<svg xmlns="http://www.w3.org/2000/svg" xmlns:xlink="http://www.w3.org/1999/xlink" width="36.949" height="42.995" viewBox="0 0 36.949 42.995">
  <defs>
    <clipPath id="clip-path">
      <rect id="사각형_45" data-name="사각형 45" width="36.949" height="42.995" fill="none"/>
    </clipPath>
  </defs>
  <g id="그룹_83" data-name="그룹 83" transform="translate(0 0)">
    <g id="그룹_82" data-name="그룹 82" transform="translate(0 0)" clip-path="url(#clip-path)">
      <path id="패스_81" data-name="패스 81" d="M18.132,38.516c-.769-.391.359-3.955-.419-4.392-1.1-.617-6.881-4.556-6.49-10.974s4.175-11.043,10.66-11.1S32.942,15.9,33.255,22.681c.308,6.691-4.9,10.51-5,11.617s.6,3.626.22,3.943c-.867.719-9.007.952-10.338.276" transform="translate(-2.764 -2.974)" fill="#f9c763"/>
      <path id="패스_82" data-name="패스 82" d="M27.421,51.476c-1.608.013-3.94-.011-7.36-.081a1.282,1.282,0,1,1,.052-2.563c4.433.124,9.656.231,9.894-.011A1.282,1.282,0,0,1,31.274,51c-.306.267-.52.452-3.853.479" transform="translate(-4.64 -12.027)" fill="#4e4e4e"/>
      <path id="패스_83" data-name="패스 83" d="M27.448,56.184c-1.154.009-2.829-.02-5.284-.1-.508-.016-.913-.6-.9-1.31s.427-1.267.936-1.253c3.044.1,6.468.125,7.1.011a.768.768,0,0,1,1,.371,1.653,1.653,0,0,1-.085,1.809c-.219.266-.372.451-2.765.47" transform="translate(-5.245 -13.191)" fill="#4e4e4e"/>
      <path id="패스_84" data-name="패스 84" d="M29.559,27.6a1.39,1.39,0,0,0-1.766.516,8.984,8.984,0,0,0-1.13,2.062q-.108.254-.206.513a2.229,2.229,0,0,1-1.113-.268,2.17,2.17,0,0,1-.291-.191A3.655,3.655,0,0,0,26.2,27.7a1.364,1.364,0,0,0-.87-1.333c-.717-.249-1.412.38-1.7.976a2.819,2.819,0,0,0,.422,2.884,3.39,3.39,0,0,1-1.641.669A17.293,17.293,0,0,0,21.9,29.22a4.136,4.136,0,0,0-1.091-1.742c-.533-.464-1.35-.719-1.729.056-.6,1.238.2,2.682,1.193,3.427A3,3,0,0,0,22,31.556c.088.373.166.748.238,1.122a25.246,25.246,0,0,1,.244,6.913.186.186,0,0,0,.365.047A19.891,19.891,0,0,0,23,34.311a23.178,23.178,0,0,0-.431-2.783,4.049,4.049,0,0,0,1.556-.55,4.348,4.348,0,0,0,.39-.265,2.818,2.818,0,0,0,1.7.683,18.867,18.867,0,0,0-.743,3.461,36.179,36.179,0,0,0-.232,4.694A.381.381,0,0,0,26,39.544,24.591,24.591,0,0,1,27,31.35a3.827,3.827,0,0,0,1.2-.427c.88-.488,2.757-2.441,1.357-3.318m-8.273,3.17a2.782,2.782,0,0,1-1.464-1.244A1.85,1.85,0,0,1,19.7,27.7c.232-.3.889.39,1.031.557a4.077,4.077,0,0,1,.641,1.2c.178.468.328.948.459,1.434a2.6,2.6,0,0,1-.547-.118M24.4,27.407c.153-.235.492-.49.786-.362a.677.677,0,0,1,.322.586,2.626,2.626,0,0,1-.616,1.74,3.719,3.719,0,0,1-.31.38,2.071,2.071,0,0,1-.182-2.344M29.312,28.5a2.209,2.209,0,0,1-.5.968,3.372,3.372,0,0,1-1.5,1.073q.107-.259.227-.513c.164-.35.348-.691.545-1.024a1.676,1.676,0,0,1,.71-.782c.219-.085.555-.012.518.278" transform="translate(-4.657 -6.49)" fill="#fff"/>
      <path id="패스_85" data-name="패스 85" d="M27,.71C26.948-.06,25.7-.324,25.575.529a19.773,19.773,0,0,0-.056,2.981,6.611,6.611,0,0,0,.287,2.933.293.293,0,0,0,.5,0A6.22,6.22,0,0,0,26.8,3.714,20.113,20.113,0,0,0,27,.71" transform="translate(-6.289 0)" fill="#f9c763"/>
      <path id="패스_86" data-name="패스 86" d="M38.928,3.491a5.725,5.725,0,0,0-1.137,1.183c-.408.472-.824.936-1.229,1.41A28.783,28.783,0,0,0,34.426,8.8c-.316.478.386.966.775.588.791-.769,1.516-1.607,2.282-2.4q.576-.6,1.168-1.178a8.147,8.147,0,0,0,1.3-1.311.747.747,0,0,0-1.024-1.008" transform="translate(-8.474 -0.835)" fill="#f9c763"/>
      <path id="패스_87" data-name="패스 87" d="M14.77,9.169c-1.417-1.468-2.917-2.89-4.4-4.288-.648-.609-1.63.406-.962.977,1.557,1.331,3.138,2.673,4.757,3.928.431.334,1.006-.2.608-.618" transform="translate(-2.265 -1.158)" fill="#f9c763"/>
      <path id="패스_88" data-name="패스 88" d="M5.953,17.72a17.718,17.718,0,0,1-2.619-.351,11.894,11.894,0,0,1-1.319-.4A8.408,8.408,0,0,0,.738,16.43c-.5-.09-1.031.565-.545.954a6.752,6.752,0,0,0,2.7.888,6.314,6.314,0,0,0,3.069.136c.411-.154.444-.65-.005-.688" transform="translate(0 -4.052)" fill="#f9c763"/>
      <path id="패스_89" data-name="패스 89" d="M46.915,16.97a4.332,4.332,0,0,0-2.039.175,16.78,16.78,0,0,0-2.258.465.39.39,0,0,0,.109.762,15.517,15.517,0,0,0,2.118.043,4.659,4.659,0,0,0,2.236-.246.664.664,0,0,0-.166-1.2" transform="translate(-10.447 -4.166)" fill="#f9c763"/>
    </g>
  </g>
</svg>
